PathFileType	4	(X/Y/Z)	Exemple_fichier.trc																																					
DataRate	CameraRate	NumFrames	NumMarkers	Units	OrigDataRate	OrigDataStartFrame	OrigNumFrames																																	
100	100	24	13	m	100	626	1000																																	
Frame#	Time	C7			T10			CLAV			STRN			RSHO			RUPA			RELB			RFRA			RWRA			RWRB			RFIN0			RFINx			RFINy		
		X1	Y1	Z1	X2	Y2	Z2	X3	Y3	Z3	X4	Y4	Z4	X5	Y5	Z5	X6	Y6	Z6	X7	Y7	Z7	X8	Y8	Z8	X9	Y9	Z9	X10	Y10	Z10	X11	Y11	Z11	X12	Y12	Z12	X13	Y13	Z13
																																								
626	6.25	0.4416308	1.294489	-0.09801741	0.4454397	1.153795	-0.05971665	0.4482113	1.226888	-0.217395	0.4465849	1.094846	-0.3208299	0.5935974	1.255167	-0.1733479	0.6967489	1.110942	-0.2805138	0.7478843	1.054902	-0.3008464	0.6756035	1.031262	-0.4591998	0.633649	1.022327	-0.5023636	0.6591311	0.9812427	-0.5044687	0.6079492	0.9486186	-0.5203436	0.5894086	0.9396867	-0.5212355	0.5940273	0.9723229	-0.5356628
627	6.26	0.4416412	1.294484	-0.09795267	0.4454588	1.153799	-0.05965816	0.4481996	1.226884	-0.2173342	0.4464761	1.094866	-0.3207743	0.5935965	1.255246	-0.1733127	0.6970935	1.111184	-0.2802987	0.7483821	1.055174	-0.3005631	0.6762869	1.031364	-0.4589639	0.6344339	1.022342	-0.5022123	0.659956	0.9812793	-0.504197	0.6088379	0.9485739	-0.5201061	0.5903068	0.9396352	-0.5210176	0.5949152	0.9722407	-0.535482
628	6.27	0.4416526	1.294479	-0.09788648	0.4454756	1.153803	-0.05960372	0.4481933	1.22688	-0.2172756	0.4463674	1.094888	-0.3207207	0.5935958	1.255336	-0.1732675	0.6974455	1.11145	-0.280073	0.7488932	1.055467	-0.300265	0.6769901	1.031472	-0.4587093	0.6352513	1.022355	-0.5020484	0.6608026	0.9813101	-0.5038975	0.6097398	0.9485381	-0.5198541	0.591212	0.9396018	-0.5207916	0.5958292	0.9721738	-0.5352904
629	6.28	0.4416638	1.294474	-0.09781778	0.44549	1.153805	-0.05955167	0.4481916	1.226879	-0.2172182	0.4462624	1.094911	-0.3206684	0.5935947	1.255432	-0.1732115	0.6977931	1.11173	-0.2798419	0.7494028	1.055772	-0.29996	0.677693	1.031585	-0.4584434	0.6360771	1.022371	-0.5018769	0.6616454	0.9813388	-0.5035796	0.6106282	0.9485161	-0.5195964	0.5920981	0.9395896	-0.5205623	0.5967411	0.9721283	-0.5350917
630	6.29	0.4416734	1.29447	-0.09774635	0.4455025	1.153806	-0.05950133	0.4481941	1.226881	-0.217161	0.4461644	1.094934	-0.3206163	0.5935934	1.255533	-0.1731451	0.6981258	1.112015	-0.2796112	0.7498969	1.056078	-0.2996562	0.6783764	1.031704	-0.4581742	0.6368869	1.022398	-0.5017032	0.6624591	0.9813702	-0.503253	0.6114771	0.9485137	-0.5193414	0.5929403	0.9396021	-0.5203344	0.5976228	0.9721108	-0.5348889
631	6.3	0.4416803	1.294467	-0.0976728	0.4455141	1.153806	-0.05945249	0.4482	1.226886	-0.2171022	0.4460764	1.094959	-0.3205631	0.5935925	1.255635	-0.1730698	0.6984344	1.112293	-0.2793863	0.7503619	1.056377	-0.2993616	0.6790216	1.031829	-0.4579089	0.6376559	1.022439	-0.5015318	0.6632194	0.9814091	-0.5029276	0.6122625	0.9485356	-0.5190965	0.5937158	0.9396422	-0.5201126	0.5984473	0.9721266	-0.5346851
632	6.31	0.4416832	1.294465	-0.09759775	0.4455254	1.153805	-0.0594047	0.448209	1.226895	-0.2170404	0.4460009	1.094984	-0.3205072	0.5935922	1.255736	-0.1729873	0.6987108	1.112556	-0.279172	0.7507852	1.056658	-0.2990832	0.6796106	1.031961	-0.457654	0.63836	1.022499	-0.5013662	0.6639026	0.9814595	-0.502612	0.6129625	0.948585	-0.5188678	0.5944036	0.939711	-0.5199021	0.5991894	0.9721789	-0.5344833
633	6.32	0.4416813	1.294464	-0.09752102	0.4455365	1.153803	-0.05935671	0.4482208	1.226907	-0.2169739	0.4459397	1.095011	-0.3204469	0.5935931	1.255833	-0.1728989	0.6989488	1.112795	-0.2789719	0.7511548	1.056913	-0.2988273	0.680126	1.032097	-0.4574146	0.6389764	1.022579	-0.5012089	0.6644877	0.9815232	-0.5023132	0.6135579	0.9486626	-0.5186604	0.5949854	0.9398079	-0.519708	0.5998272	0.9722672	-0.5342872
634	6.33	0.4416739	1.294463	-0.09744138	0.4455464	1.153801	-0.05930633	0.4482351	1.226922	-0.2169018	0.4458942	1.095038	-0.3203802	0.5935955	1.255922	-0.1728049	0.6991433	1.113003	-0.2787884	0.7514599	1.057137	-0.2985985	0.6805516	1.032233	-0.4571945	0.6394853	1.022678	-0.5010614	0.6649561	0.9815988	-0.502037	0.6140315	0.9487656	-0.5184776	0.5954449	0.9399293	-0.5195344	0.6003423	0.9723874	-0.5341011
635	6.34	0.4416606	1.294462	-0.09735725	0.4455538	1.153797	-0.05925068	0.4482512	1.226937	-0.2168231	0.4458656	1.095065	-0.3203061	0.5935993	1.256001	-0.172705	0.6992904	1.113175	-0.2786226	0.7516911	1.057323	-0.2984003	0.6808733	1.032364	-0.4569963	0.6398711	1.022789	-0.500925	0.6652933	0.9816815	-0.5017871	0.614369	0.9488876	-0.5183204	0.5957687	0.9400691	-0.5193841	0.6007211	0.9725325	-0.5339298
636	6.35	0.4416413	1.294459	-0.09726739	0.4455574	1.153791	-0.05918689	0.4482686	1.226953	-0.2167379	0.4458545	1.095092	-0.320224	0.5936043	1.256065	-0.1725979	0.6993873	1.113306	-0.2784754	0.7518404	1.057465	-0.2982353	0.6810799	1.032482	-0.4568225	0.6401227	1.022904	-0.5008012	0.6654891	0.9817644	-0.5015656	0.614559	0.94902	-0.5181881	0.5959465	0.9402198	-0.5192584	0.6009539	0.9726933	-0.5337782
637	6.36	0.441616	1.294454	-0.09717126	0.4455563	1.153783	-0.05911318	0.4482866	1.226966	-0.2166462	0.4458613	1.095118	-0.3201347	0.5936101	1.256113	-0.172482	0.6994315	1.113395	-0.2783479	0.7519027	1.05756	-0.2981055	0.6811641	1.03258	-0.4566754	0.6402337	1.023016	-0.5006916	0.6655377	0.9818395	-0.501374	0.6145939	0.949153	-0.5180793	0.5959721	0.940373	-0.5191579	0.6010352	0.9728594	-0.5336502
638	6.37	0.4415853	1.294447	-0.09706887	0.44555	1.153772	-0.05902967	0.4483042	1.226978	-0.2165484	0.4458857	1.09514	-0.3200396	0.5936164	1.256142	-0.1723566	0.6994218	1.113441	-0.2782413	0.7518752	1.057602	-0.2980126	0.6811221	1.032653	-0.4565576	0.6402022	1.023115	-0.500598	0.6654379	0.9819002	-0.5012135	0.6144712	0.9492777	-0.517993	0.5958434	0.9405209	-0.5190826	0.6009633	0.9730206	-0.5335481
639	6.38	0.4415499	1.294436	-0.09696067	0.4455384	1.153757	-0.05893852	0.4483208	1.226986	-0.216445	0.4459264	1.095158	-0.3199405	0.5936229	1.256153	-0.1722216	0.6993573	1.11344	-0.2781576	0.7517576	1.057589	-0.2979576	0.680954	1.032695	-0.456471	0.640029	1.023195	-0.500522	0.6651919	0.981941	-0.5010854	0.6141939	0.9493871	-0.5179289	0.595562	0.9406558	-0.5190325	0.6007399	0.9731682	-0.5334718
640	6.39	0.4415115	1.294421	-0.0968474	0.4455217	1.153738	-0.05884277	0.4483357	1.226992	-0.2163369	0.4459812	1.095172	-0.3198399	0.5936292	1.256146	-0.1720785	0.6992379	1.113393	-0.2780987	0.751551	1.057518	-0.2979406	0.6806624	1.032704	-0.4564163	0.6397174	1.023253	-0.5004643	0.6648044	0.9819585	-0.50099	0.6137693	0.9494759	-0.5178871	0.595133	0.9407711	-0.5190063	0.6003698	0.9732956	-0.5334199
641	6.4	0.4414724	1.294404	-0.09673006	0.4454996	1.153715	-0.05874477	0.4483482	1.226997	-0.2162247	0.4460473	1.095182	-0.3197397	0.5936351	1.256122	-0.1719295	0.6990642	1.113299	-0.2780658	0.7512579	1.057389	-0.2979608	0.6802523	1.032678	-0.4563925	0.6392726	1.023284	-0.5004244	0.6642827	0.9819503	-0.5009269	0.6132078	0.94954	-0.5178674	0.5945645	0.9408612	-0.5190021	0.5998599	0.9733982	-0.5333897
642	6.41	0.4414346	1.294383	-0.09660959	0.4454717	1.153688	-0.05864553	0.448358	1.227001	-0.2161096	0.4461211	1.095188	-0.3196414	0.59364	1.256083	-0.1717767	0.698838	1.113159	-0.2780587	0.7508815	1.057204	-0.2980157	0.6797305	1.032616	-0.456397	0.6387018	1.023287	-0.5004009	0.6636359	0.9819146	-0.5008943	0.6125211	0.9495768	-0.5178685	0.5938672	0.9409226	-0.5190173	0.5992194	0.9734728	-0.5333786
643	6.42	0.4413999	1.294361	-0.09648683	0.4454378	1.15366	-0.05854496	0.4483652	1.227006	-0.215993	0.4461991	1.09519	-0.3195447	0.5936429	1.25603	-0.1716222	0.6985623	1.112973	-0.2780764	0.7504266	1.056967	-0.2981017	0.6791057	1.032517	-0.4564262	0.6380144	1.023259	-0.5003913	0.6628752	0.9818496	-0.5008892	0.6117214	0.9495841	-0.5178874	0.5930533	0.9409529	-0.5190482	0.5984593	0.9735166	-0.5333833
644	6.43	0.4413692	1.294338	-0.09636264	0.4453975	1.153631	-0.05844232	0.4483702	1.227013	-0.2158763	0.4462779	1.095186	-0.3194487	0.5936422	1.255964	-0.1714673	0.6982412	1.112746	-0.2781164	0.749899	1.056682	-0.298214	0.6783881	1.032381	-0.4564756	0.6372225	1.023197	-0.5003926	0.6620135	0.9817527	-0.5009077	0.6108212	0.9495602	-0.5179196	0.5921357	0.9409499	-0.5190898	0.5975925	0.9735269	-0.5334
645	6.44	0.4413429	1.294316	-0.09623807	0.4453512	1.153605	-0.05833728	0.4483737	1.227021	-0.2157606	0.4463549	1.095178	-0.3193512	0.5936369	1.255887	-0.171313	0.6978803	1.112485	-0.2781758	0.7493065	1.056355	-0.2983472	0.6775901	1.032207	-0.4565413	0.6363407	1.023101	-0.5004016	0.6610651	0.9816211	-0.5009455	0.609833	0.9495036	-0.5179592	0.5911284	0.9409123	-0.5191354	0.596633	0.9735013	-0.533424
646	6.45	0.4413211	1.294295	-0.09611431	0.4452999	1.153582	-0.05823107	0.4483766	1.22703	-0.2156462	0.4464286	1.095165	-0.319251	0.5936266	1.2558	-0.1711606	0.6974858	1.112195	-0.2782512	0.7486587	1.055995	-0.2984958	0.676726	1.031996	-0.4566193	0.6353858	1.022969	-0.5004157	0.660046	0.9814529	-0.5009979	0.6087705	0.9494129	-0.5179986	0.5900461	0.9408395	-0.5191771	0.5955961	0.9734378	-0.5334494
647	6.46	0.4413039	1.294276	-0.09599256	0.4452463	1.153565	-0.05812647	0.4483797	1.227041	-0.2155333	0.4464981	1.095149	-0.3191474	0.593612	1.255704	-0.1710114	0.6970644	1.111884	-0.2783395	0.7479667	1.055609	-0.2986537	0.6758118	1.03175	-0.4567061	0.634376	1.022801	-0.5004321	0.6589733	0.9812484	-0.5010609	0.6076487	0.9492876	-0.5180298	0.5889054	0.9407325	-0.5192068	0.5944984	0.9733354	-0.5334703
648	6.47	0.4412914	1.29426	-0.0958737	0.4451939	1.153556	-0.05802673	0.4483831	1.227054	-0.2154219	0.4465627	1.095132	-0.3190417	0.5935945	1.255601	-0.1708665	0.6966231	1.111562	-0.2784369	0.7472431	1.055208	-0.2988145	0.6748646	1.031475	-0.4567974	0.6333307	1.022601	-0.5004478	0.6578653	0.9810109	-0.50113	0.6064851	0.9491286	-0.518045	0.5877248	0.9405932	-0.5192168	0.5933579	0.9731951	-0.5334805
649	6.48	0.4412834	1.294248	-0.09575819	0.4451463	1.153555	-0.0579344	0.4483867	1.227068	-0.2153126	0.4466215	1.095116	-0.3189366	0.5935761	1.255492	-0.1707271	0.6961695	1.111234	-0.2785396	0.7465016	1.054801	-0.298971	0.6739025	1.031177	-0.4568881	0.6322691	1.022375	-0.5004588	0.6567415	0.9807478	-0.5012005	0.6052996	0.9489391	-0.5180378	0.5865247	0.9404254	-0.5192011	0.5921935	0.9730205	-0.533475
